<?xml version="1.0" encoding="UTF-8"?> <svg xmlns="http://www.w3.org/2000/svg" width="614" height="717" viewBox="0 0 614 717" fill="none"><g clip-path="url(#clip0_143_15)"><mask id="mask0_143_15" style="mask-type:alpha" maskUnits="userSpaceOnUse" x="-362" y="-69" width="1102" height="919"><path d="M-362 -69H740V850H-362V-69Z" fill="url(#paint0_linear_143_15)"></path></mask><g mask="url(#mask0_143_15)"><path d="M-626.858 875.803C-679.433 877.324 -727.708 876.057 -768.091 871.774L-626.858 875.803C-380.371 868.672 -39.3807 800.277 25.9467 694.266C105.208 565.645 92.3934 431.802 92.3934 431.802L1.26654 437.497L134.16 254.294L298.853 431.802L199.657 424.683C226.236 609.784 138.432 798.208 97.1396 896.454L-626.858 875.803Z" fill="#FFE590"></path><path d="M-700.683 795.442C-768.179 797.393 -830.155 795.768 -882 790.273L-700.683 795.442C-384.242 786.293 53.5244 698.536 137.392 562.517C239.149 397.486 222.697 225.755 222.697 225.755L105.708 233.063L276.317 -2L487.751 225.755L360.403 216.621C394.525 454.12 281.801 695.882 228.79 821.939L-700.683 795.442Z" fill="#F6B900"></path><path d="M-311.711 697.346C-364.285 698.867 -412.561 697.6 -452.944 693.317L-311.711 697.346C-65.2238 690.215 275.767 621.82 341.094 515.81C420.355 387.188 407.541 253.345 407.541 253.345L316.414 259.041L449.307 75.8376L614 253.345L514.805 246.226C541.383 431.327 453.579 619.751 412.287 717.997L-311.711 697.346Z" fill="#FFE590"></path></g></g><defs><linearGradient id="paint0_linear_143_15" x1="189" y1="723.743" x2="189" y2="529.899" gradientUnits="userSpaceOnUse"><stop offset="0.35945" stop-color="#0B0B0B" stop-opacity="0"></stop><stop offset="1" stop-color="white"></stop></linearGradient><clipPath id="clip0_143_15"><rect width="614" height="717" fill="white"></rect></clipPath></defs></svg> 