<svg xmlns="http://www.w3.org/2000/svg" xmlns:xlink="http://www.w3.org/1999/xlink" width="1080" zoomAndPan="magnify" viewBox="0 0 810 809.999993" height="1080" preserveAspectRatio="xMidYMid meet" version="1.0"><path fill="#f6b900" d="M 787.421875 706.195312 L 625.316406 544.078125 C 665.472656 487.722656 689.363281 419.007812 689.363281 344.679688 C 689.363281 154.628906 534.734375 0 344.679688 0 C 154.628906 0 0 154.628906 0 344.679688 C 0 534.753906 154.628906 689.363281 344.679688 689.363281 C 419.007812 689.363281 487.722656 665.484375 544.078125 625.316406 L 706.195312 787.433594 C 728.609375 809.875 765.019531 809.875 787.421875 787.433594 C 809.867188 764.980469 809.867188 728.636719 787.421875 706.195312 Z M 344.679688 631.914062 C 186.300781 631.914062 57.445312 503.050781 57.445312 344.679688 C 57.445312 186.300781 186.300781 57.445312 344.679688 57.445312 C 503.0625 57.445312 631.914062 186.300781 631.914062 344.679688 C 631.914062 503.050781 503.0625 631.914062 344.679688 631.914062 Z M 344.679688 631.914062 " fill-opacity="1" fill-rule="nonzero"/><path fill="#f6b900" d="M 545.746094 344.679688 L 545.746094 445.210938 C 545.746094 469.003906 526.453125 488.296875 502.660156 488.296875 L 186.703125 488.296875 C 162.910156 488.296875 143.617188 469.003906 143.617188 445.210938 L 143.617188 344.679688 Z M 545.746094 344.679688 " fill-opacity="1" fill-rule="nonzero"/><path fill="#f6b900" d="M 502.660156 201.0625 L 430.851562 201.0625 L 430.851562 150.796875 C 430.851562 130.96875 414.777344 114.894531 394.945312 114.894531 L 294.414062 114.894531 C 274.585938 114.894531 258.511719 130.96875 258.511719 150.796875 L 258.511719 201.0625 L 186.703125 201.0625 C 162.910156 201.0625 143.617188 220.355469 143.617188 244.148438 L 143.617188 301.597656 L 545.746094 301.597656 L 545.746094 244.148438 C 545.746094 220.355469 526.453125 201.0625 502.660156 201.0625 Z M 301.597656 157.980469 L 387.765625 157.980469 L 387.765625 201.0625 L 301.597656 201.0625 Z M 301.597656 157.980469 " fill-opacity="1" fill-rule="nonzero"/></svg>